<?xml version="1.0" encoding="UTF-8"?>
<!DOCTYPE svg PUBLIC "-//W3C//DTD SVG 1.1//EN" "http://www.w3.org/Graphics/SVG/1.1/DTD/svg11.dtd">
<svg xmlns="http://www.w3.org/2000/svg" version="1.1" width="974px" height="209px" style="shape-rendering:geometricPrecision; text-rendering:geometricPrecision; image-rendering:optimizeQuality; fill-rule:evenodd; clip-rule:evenodd" xmlns:xlink="http://www.w3.org/1999/xlink">
<g><path style="opacity:1" fill="#002460" d="M 319.5,36.5 C 330.505,36.3335 341.505,36.5002 352.5,37C 379.167,40.0109 391.834,55.0109 390.5,82C 390.226,104.6 384.726,125.767 374,145.5C 362.695,159.739 347.862,167.572 329.5,169C 311.965,171.445 295.298,168.779 279.5,161C 270.912,154.67 265.745,146.17 264,135.5C 262.214,117.005 263.881,98.6717 269,80.5C 276.313,54.7794 293.146,40.1127 319.5,36.5 Z M 327.5,62.5 C 334.753,62.5075 342.419,63.3409 350.5,65C 354.333,66.1667 356.833,68.6667 358,72.5C 359.389,89.7358 357.722,106.736 353,123.5C 350.992,131.163 346.492,136.663 339.5,140C 326.372,143.58 313.372,143.246 300.5,139C 297.533,136.9 295.7,134.066 295,130.5C 294.036,113.911 295.703,97.5777 300,81.5C 301.567,73.4977 306.067,67.9977 313.5,65C 318.294,64.0979 322.961,63.2645 327.5,62.5 Z"/></g>
<g><path style="opacity:1" fill="#002460" d="M 17.5,38.5 C 31.3249,38.0192 44.9915,38.5192 58.5,40C 52.1531,81.7601 45.9864,123.593 40,165.5C 30.2496,166.486 20.4163,166.819 10.5,166.5C 15.9715,129.033 21.3049,91.5326 26.5,54C 26.5056,51.7002 26.0056,49.5336 25,47.5C 21.8883,44.8991 19.3883,41.8991 17.5,38.5 Z"/></g>
<g><path style="opacity:1" fill="#002460" d="M 103.5,38.5 C 114.853,38.1678 126.186,38.5012 137.5,39.5C 121.955,59.7181 105.288,79.0515 87.5,97.5C 102.454,118.494 114.454,141.16 123.5,165.5C 111.848,166.666 100.181,166.833 88.5,166C 80.4526,146.405 70.9526,127.572 60,109.5C 57.2031,105.701 54.0364,102.201 50.5,99C 70.2382,80.4428 87.9049,60.2761 103.5,38.5 Z"/></g>
<g><path style="opacity:1" fill="#002460" d="M 142.5,38.5 C 174.532,38.0527 206.532,38.5527 238.5,40C 249.225,42.5643 254.558,49.3977 254.5,60.5C 254.007,69.4674 252.173,78.134 249,86.5C 246.737,93.0972 242.237,97.2639 235.5,99C 242.19,101.026 246.023,105.526 247,112.5C 248.979,126.626 246.646,139.959 240,152.5C 233.14,160.847 224.307,165.347 213.5,166C 187.502,166.5 161.502,166.667 135.5,166.5C 140.785,129.003 146.119,91.5033 151.5,54C 151.506,51.7002 151.006,49.5336 150,47.5C 146.888,44.8991 144.388,41.8991 142.5,38.5 Z M 179.5,63.5 C 191.838,63.3335 204.171,63.5001 216.5,64C 219.934,65.5293 221.6,68.196 221.5,72C 221.596,77.924 219.596,82.924 215.5,87C 202.574,88.4428 189.574,88.9428 176.5,88.5C 177.391,80.1538 178.391,71.8204 179.5,63.5 Z M 173.5,111.5 C 186.561,111.078 199.561,111.578 212.5,113C 214.771,115.944 216.105,119.278 216.5,123C 216.12,129.475 213.786,135.142 209.5,140C 195.907,141.446 182.24,141.946 168.5,141.5C 169.613,131.368 171.28,121.368 173.5,111.5 Z"/></g>
<g><path style="opacity:1" fill="#002460" d="M 728.5,51.5 C 746.034,50.6109 760.201,56.9442 771,70.5C 774.021,75.0621 775.521,80.0621 775.5,85.5C 766.5,85.5 757.5,85.5 748.5,85.5C 747.844,80.713 745.178,77.5464 740.5,76C 726.021,72.8353 716.854,78.3353 713,92.5C 712.333,98.8333 712.333,105.167 713,111.5C 716.007,125.931 724.84,131.765 739.5,129C 746.841,127.491 750.841,122.991 751.5,115.5C 746.489,115.666 741.489,115.499 736.5,115C 732.708,109.251 729.042,103.418 725.5,97.5C 742.821,96.5005 760.154,96.1672 777.5,96.5C 780.658,136.508 762.325,155.008 722.5,152C 702.78,147.947 690.614,136.114 686,116.5C 681.415,95.9974 686.249,78.1641 700.5,63C 708.823,56.5087 718.156,52.6754 728.5,51.5 Z"/></g>
<g><path style="opacity:1" fill="#002460" d="M 424.5,53.5 C 433.5,53.5 442.5,53.5 451.5,53.5C 451.5,79.1667 451.5,104.833 451.5,130.5C 464.833,130.5 478.167,130.5 491.5,130.5C 491.813,137.755 491.48,144.921 490.5,152C 468.594,152.827 446.76,152.66 425,151.5C 424.5,118.835 424.333,86.1684 424.5,53.5 Z"/></g>
<g><path style="opacity:1" fill="#002460" d="M 502.5,53.5 C 526.509,53.1669 550.509,53.5003 574.5,54.5C 573.977,61.0651 573.643,67.5651 573.5,74C 558.837,74.4999 544.17,74.6666 529.5,74.5C 529.5,80.1667 529.5,85.8333 529.5,91.5C 542.837,91.3334 556.171,91.5001 569.5,92C 570.48,99.0787 570.813,106.245 570.5,113.5C 556.833,113.5 543.167,113.5 529.5,113.5C 529.5,119.167 529.5,124.833 529.5,130.5C 544.167,130.5 558.833,130.5 573.5,130.5C 573.5,137.833 573.5,145.167 573.5,152.5C 549.833,152.5 526.167,152.5 502.5,152.5C 502.5,119.5 502.5,86.5 502.5,53.5 Z"/></g>
<g><path style="opacity:1" fill="#002460" d="M 613.5,53.5 C 626.08,53.1779 638.58,53.5112 651,54.5C 661.645,86.7682 672.478,118.935 683.5,151C 673.994,152.637 664.328,152.97 654.5,152C 652.5,146 650.5,140 648.5,134C 642.584,133.81 636.751,133.31 631,132.5C 629.266,126.464 627.432,120.464 625.5,114.5C 631.311,113.958 636.978,113.124 642.5,112C 639.227,101.399 635.727,90.8989 632,80.5C 624.822,104.213 617.488,127.88 610,151.5C 600.583,152.485 591.083,152.818 581.5,152.5C 591.767,119.366 602.434,86.366 613.5,53.5 Z"/></g>
<g><path style="opacity:1" fill="#002460" d="M 790.5,53.5 C 799.5,53.5 808.5,53.5 817.5,53.5C 817.333,75.5025 817.5,97.5025 818,119.5C 823.983,130.301 832.483,132.801 843.5,127C 846.515,124.137 848.349,120.637 849,116.5C 849.5,95.5026 849.667,74.5026 849.5,53.5C 858.506,53.3336 867.506,53.5002 876.5,54C 875.725,74.946 875.725,95.6127 876.5,116C 873.346,140.972 859.012,153.472 833.5,153.5C 819.624,153.823 807.79,149.156 798,139.5C 794.578,134.655 792.245,129.322 791,123.5C 790.5,100.169 790.333,76.8357 790.5,53.5 Z"/></g>
<g><path style="opacity:1" fill="#002460" d="M 888.5,53.5 C 912.5,53.5 936.5,53.5 960.5,53.5C 960.5,60.5 960.5,67.5 960.5,74.5C 945.83,74.3334 931.163,74.5001 916.5,75C 915.527,80.4066 915.193,85.9066 915.5,91.5C 929.167,91.5 942.833,91.5 956.5,91.5C 956.5,98.8333 956.5,106.167 956.5,113.5C 942.833,113.5 929.167,113.5 915.5,113.5C 915.5,119.167 915.5,124.833 915.5,130.5C 930.5,130.5 945.5,130.5 960.5,130.5C 960.813,137.755 960.48,144.921 959.5,152C 935.927,152.827 912.427,152.66 889,151.5C 888.5,118.835 888.333,86.1684 888.5,53.5 Z"/></g>
</svg>
